<svg xmlns="http://www.w3.org/2000/svg" xmlns:xlink="http://www.w3.org/1999/xlink" viewBox="0 0 25.95 31.53"><defs><style>.cls-1,.cls-2{fill:none;}.cls-1{clip-rule:evenodd;}.cls-3{clip-path:url(#clip-path);}.cls-4{clip-path:url(#clip-path-2);}.cls-5{fill:#fff;}</style><clipPath id="clip-path" transform="translate(-38 -272)"><path class="cls-1" d="M58.13,281.57a.83.83,0,0,1,0,1.66H53.21v6.28a1.28,1.28,0,0,1,0,.14l2.69,7.44a1.07,1.07,0,0,1-.72,1.4,1.05,1.05,0,0,1-1.26-.67l-2.53-7h-.81l-2.53,7a1.05,1.05,0,0,1-1.26.67,1.07,1.07,0,0,1-.72-1.4l2.69-7.44a1.24,1.24,0,0,1,0-.14v-6.28H43.82a.83.83,0,0,1,0-1.66H58.13ZM51,280.74a1.87,1.87,0,1,1,1.85-1.87A1.86,1.86,0,0,1,51,280.74Z"/></clipPath><clipPath id="clip-path-2" transform="translate(-38 -272)"><rect class="cls-2" width="1280" height="3400"/></clipPath></defs><title>biometrics-icon-hover</title><g id="Layer_2" data-name="Layer 2"><g id="Layer_1-2" data-name="Layer 1"><g class="cls-3"><g class="cls-4"><rect class="cls-5" width="25.95" height="31.53"/></g></g></g></g></svg>