<!-- Generated by IcoMoon.io -->
<svg version="1.1" xmlns="http://www.w3.org/2000/svg" width="768" height="768" viewBox="0 0 768 768">
<title></title>
<g id="icomoon-ignore">
</g>
<path fill="#A1A7B3" d="M768 436.8v-105.6l-91.2-33.6c-4.8-24-14.4-43.2-24-62.4l43.2-86.4-72-72-86.4 43.2c-28.8-14.4-48-24-72-28.8l-28.8-91.2h-105.6l-33.6 91.2c-19.2 4.8-43.2 14.4-62.4 28.8l-86.4-43.2-72 72 43.2 86.4c-14.4 19.2-24 43.2-28.8 62.4l-91.2 33.6v105.6l91.2 33.6c4.8 24 14.4 43.2 24 62.4l-43.2 86.4 72 72 86.4-43.2c19.2 9.6 38.4 19.2 62.4 24l38.4 96h105.6l33.6-91.2c24-4.8 43.2-14.4 62.4-24l86.4 43.2 72-72-43.2-86.4c9.6-19.2 19.2-38.4 24-62.4l96-38.4zM384 523.2c-76.8 0-139.2-62.4-139.2-139.2s62.4-139.2 139.2-139.2c76.8 0 139.2 62.4 139.2 139.2s-62.4 139.2-139.2 139.2z"></path>
</svg>
