<svg xmlns="http://www.w3.org/2000/svg" 
xmlns:xlink="http://www.w3.org/1999/xlink" 
viewBox="0 0 31.98 27.27">
<defs>
<style>.cls-1{fill:none;}.cls-2{clip-path:url(#clip-path);}.cls-3{clip-path:url(#clip-path-2);}.cls-4{fill:#A1A7B3;}</style>
<clipPath id="clip-path" transform="translate(-35 -120.03)">
<path class="cls-1" d="M60,137.14a1.57,1.57,0,1,1,.46-1.11A1.51,1.51,0,0,1,60,137.14Zm-4.58-5.5a1.57,1.57,0,1,1,1.11.46A1.51,1.51,0,0,1,55.38,131.64Zm-1.82.1-1.24,4.69a2.33,2.33,0,0,1,.88,1.12,2.36,2.36,0,0,1-1,2.87,2.29,2.29,0,0,1-1.79.25A2.25,2.25,0,0,1,49,139.57a2.35,2.35,0,0,1,.53-3A2.33,2.33,0,0,1,50.8,136L52,131.35a.77.77,0,0,1,.37-.48.73.73,0,0,1,.59-.08.8.8,0,0,1,.56,1Zm-6.95-.1a1.57,1.57,0,1,1,.46-1.11A1.51,1.51,0,0,1,46.61,131.64Zm-2.36,5.5a1.57,1.57,0,1,1,.46-1.11A1.51,1.51,0,0,1,44.25,137.14Zm5.63-10.07a1.57,1.57,0,1,1-.46,1.11A1.51,1.51,0,0,1,49.88,127.07Zm11.23,4.69a10.8,10.8,0,0,0-5.85-5.85,10.9,10.9,0,0,0-8.54,0,10.8,10.8,0,0,0-5.85,5.85A11,11,0,0,0,41.73,142a.75.75,0,0,0,.66.36h17.2a.75.75,0,0,0,.66-.36,11,11,0,0,0,.86-10.19Z"/></clipPath><clipPath id="clip-path-2" transform="translate(-35 -120.03)"><rect class="cls-1" width="1280" height="800"/></clipPath></defs><title>dashboard-icon</title><g id="Layer_2" data-name="Layer 2"><g id="Layer_1-2" data-name="Layer 1"><g class="cls-2"><g class="cls-3"><rect class="cls-4" width="31.98" height="27.27"/></g></g></g></g></svg>