<svg xmlns="http://www.w3.org/2000/svg" xmlns:xlink="http://www.w3.org/1999/xlink" viewBox="0 0 30 30"><defs><style>.cls-1,.cls-2{fill:none;}.cls-1{clip-rule:evenodd;}.cls-3{clip-path:url(#clip-path);}.cls-4{clip-path:url(#clip-path-2);}.cls-5{fill:#f3e63e;}</style><clipPath id="clip-path" transform="translate(-1155 -1282)"><path class="cls-1" d="M1170,1287a10,10,0,1,0,10,10A10,10,0,0,0,1170,1287Zm2.32,15.39-1.2.45a3.19,3.19,0,0,1-1,.16,2.08,2.08,0,0,1-1.42-.45,1.44,1.44,0,0,1-.51-1.13,4.06,4.06,0,0,1,0-.54c0-.19.07-.4.12-.63l.63-2.22q.09-.32.14-.61a2.7,2.7,0,0,0,.06-.52.8.8,0,0,0-.18-.6,1,1,0,0,0-.67-.17,1.74,1.74,0,0,0-.5.08l-.44.15.17-.69c.41-.17.81-.31,1.18-.43a3.55,3.55,0,0,1,1.07-.18,2,2,0,0,1,1.4.44,1.45,1.45,0,0,1,.49,1.14c0,.1,0,.27,0,.51a3.46,3.46,0,0,1-.13.67l-.63,2.22a5.92,5.92,0,0,0-.14.61,3.2,3.2,0,0,0-.06.52.74.74,0,0,0,.2.6,1.11,1.11,0,0,0,.68.16,2,2,0,0,0,.52-.08,2.78,2.78,0,0,0,.42-.14Zm-.11-9a1.57,1.57,0,0,1-2.11,0,1.33,1.33,0,0,1,0-2,1.56,1.56,0,0,1,2.11,0,1.33,1.33,0,0,1,0,2Z"/></clipPath><clipPath id="clip-path-2" transform="translate(-1155 -1282)"><rect class="cls-2" width="1280" height="2300"/></clipPath></defs><title>level-5</title><g id="Layer_2" data-name="Layer 2"><g id="Layer_1-2" data-name="Layer 1"><g class="cls-3"><g class="cls-4"><rect class="cls-5" width="30" height="30"/></g></g></g></g></svg>