<svg xmlns="http://www.w3.org/2000/svg" xmlns:xlink="http://www.w3.org/1999/xlink" viewBox="0 0 44.38 41.97"><defs><style>.cls-1,.cls-2{fill:none;}.cls-1{clip-rule:evenodd;}.cls-3{clip-path:url(#clip-path);}.cls-4{clip-path:url(#clip-path-2);}.cls-5{fill:#f9e94c;}.cls-6{clip-path:url(#clip-path-3);}.cls-7{fill:#222221;}.cls-8{clip-path:url(#clip-path-5);}.cls-9{fill:#7ec1ee;}</style><clipPath id="clip-path" transform="translate(-436.58 -659)"><path class="cls-1" d="M460,696a16,16,0,1,1,16-16,16,16,0,0,1-16,16"/></clipPath><clipPath id="clip-path-2" transform="translate(-436.58 -659)"><rect class="cls-2" width="1280" height="2650"/></clipPath><clipPath id="clip-path-3" transform="translate(-436.58 -659)"><path class="cls-1" d="M461.39,689.43h-2.56a5.84,5.84,0,0,1-5.87-5.8.76.76,0,1,1,1.52,0,4.28,4.28,0,0,0,4.36,4.29h2.56a4.24,4.24,0,0,0,4.36-4.21.76.76,0,1,1,1.52,0,5.74,5.74,0,0,1-5.87,5.73m-4.88-13.64a1.84,1.84,0,1,1-1.84-1.84,1.84,1.84,0,0,1,1.84,1.84m10.59,0a1.84,1.84,0,1,1-1.84-1.84,1.84,1.84,0,0,1,1.84,1.84"/></clipPath><clipPath id="clip-path-5" transform="translate(-436.58 -659)"><path class="cls-1" d="M449.4,676.89a4.25,4.25,0,0,0,.63-3.35c-.28-2.43-2.64-5.61-4.3-7.54-1.4,1.7-3.67,4.83-4.06,7.57-.22,1.6,0,2.74.52,3.4s1.77,1,3.5,1,3-.37,3.7-1.11"/></clipPath></defs><title>feeling_icon_3</title><g id="Layer_2" data-name="Layer 2"><g id="Layer_1-2" data-name="Layer 1"><g class="cls-3"><g class="cls-4"><rect class="cls-5" x="2.42" width="41.96" height="41.97"/></g></g><g class="cls-6"><g class="cls-4"><rect class="cls-7" x="11.24" y="9.95" width="24.44" height="25.48"/></g></g><g class="cls-8"><g class="cls-4"><rect class="cls-9" y="2" width="18.51" height="22"/></g></g></g></g></svg>