<svg xmlns="http://www.w3.org/2000/svg" xmlns:xlink="http://www.w3.org/1999/xlink" viewBox="0 0 44.38 41.97"><defs><style>.cls-1,.cls-2{fill:none;}.cls-1{clip-rule:evenodd;}.cls-3{clip-path:url(#clip-path);}.cls-4{clip-path:url(#clip-path-2);}.cls-5{fill:#f9e94c;}.cls-6{clip-path:url(#clip-path-3);}.cls-7{fill:#222221;}.cls-8{clip-path:url(#clip-path-5);}.cls-9{fill:#7ec1ee;}.cls-10{clip-path:url(#clip-path-7);}.cls-11{clip-path:url(#clip-path-9);}</style><clipPath id="clip-path" transform="translate(-540.58 -659)"><path class="cls-1" d="M564,696a16,16,0,1,1,16-16,16,16,0,0,1-16,16"/></clipPath><clipPath id="clip-path-2" transform="translate(-540.58 -659)"><rect class="cls-2" width="1280" height="2650"/></clipPath><clipPath id="clip-path-3" transform="translate(-540.58 -659)"><path class="cls-1" d="M558.43,688.58a.76.76,0,0,1-.49-1.34l2-1.66a.76.76,0,0,1,1,0l1.59,1.27,1.44-1.25a.76.76,0,0,1,1,0l1.45,1.26,1.67-1.29a.76.76,0,0,1,1,0l1.83,1.66a.76.76,0,1,1-1,1.12l-1.36-1.24-1.66,1.28a.76.76,0,0,1-1,0l-1.42-1.23L563,688.4a.76.76,0,0,1-1,0l-1.6-1.28-1.52,1.27A.75.75,0,0,1,558.43,688.58Z"/></clipPath><clipPath id="clip-path-5" transform="translate(-540.58 -659)"><path class="cls-1" d="M553.4,676.89a4.25,4.25,0,0,0,.63-3.35c-.28-2.43-2.64-5.61-4.3-7.54-1.4,1.7-3.67,4.83-4.06,7.57-.22,1.6,0,2.74.52,3.4s1.77,1,3.5,1,3-.37,3.7-1.11"/></clipPath><clipPath id="clip-path-7" transform="translate(-540.58 -659)"><path class="cls-1" d="M571.45,679.42a.76.76,0,0,1-.35-.08l-3.73-1.92a.76.76,0,0,1,0-1.34l3.73-2.08a.76.76,0,0,1,.74,1.33l-2.49,1.39L571.8,678a.76.76,0,0,1-.35,1.43Z"/></clipPath><clipPath id="clip-path-9" transform="translate(-540.58 -659)"><path class="cls-1" d="M557.18,679a.76.76,0,0,1-.29-1.46l2.32-.95-2.35-1.31a.76.76,0,0,1,.74-1.33l3.73,2.08a.76.76,0,0,1-.08,1.37L557.47,679A.76.76,0,0,1,557.18,679Z"/></clipPath></defs><title>feeling_icon_5</title><g id="Layer_2" data-name="Layer 2"><g id="Layer_1-2" data-name="Layer 1"><g class="cls-3"><g class="cls-4"><rect class="cls-5" x="2.42" width="41.96" height="41.97"/></g></g><g class="cls-6"><g class="cls-4"><rect class="cls-7" x="12.09" y="21.4" width="23.41" height="13.18"/></g></g><g class="cls-8"><g class="cls-4"><rect class="cls-9" y="2" width="18.51" height="22"/></g></g><g class="cls-10"><g class="cls-4"><rect class="cls-7" x="21.38" y="9.91" width="15.25" height="15.51"/></g></g><g class="cls-11"><g class="cls-4"><rect class="cls-7" x="10.84" y="9.91" width="15.3" height="15.14"/></g></g></g></g></svg>