<svg xmlns="http://www.w3.org/2000/svg" xmlns:xlink="http://www.w3.org/1999/xlink" viewBox="0 0 56 56"><defs><style>.cls-1,.cls-2,.cls-5{fill:none;}.cls-2{clip-rule:evenodd;}.cls-3{clip-path:url(#clip-path);}.cls-4{clip-path:url(#clip-path-2);}.cls-5{stroke:#fff;stroke-miterlimit:10;stroke-width:8px;}.cls-6{clip-path:url(#clip-path-3);}.cls-7{fill:#fff;}.cls-8{clip-path:url(#clip-path-5);}</style><clipPath id="clip-path" transform="translate(-536 -1760)"><circle class="cls-1" cx="564" cy="1788" r="24"/></clipPath><clipPath id="clip-path-2" transform="translate(-536 -1760)"><rect class="cls-1" width="640" height="4996"/></clipPath><clipPath id="clip-path-3" transform="translate(-536 -1760)"><path class="cls-2" d="M564,1776a2,2,0,0,1,2,2v20a2,2,0,1,1-4,0v-20A2,2,0,0,1,564,1776Z"/></clipPath><clipPath id="clip-path-5" transform="translate(-536 -1760)"><path class="cls-2" d="M552,1788a2,2,0,0,1,2-2h20a2,2,0,1,1,0,4H554A2,2,0,0,1,552,1788Z"/></clipPath></defs><title>add-new-day-icon0</title><g id="Layer_2" data-name="Layer 2"><g id="Layer_1-2" data-name="Layer 1"><g class="cls-3"><g class="cls-4"><circle class="cls-5" cx="28" cy="28" r="24"/></g></g><g class="cls-6"><g class="cls-4"><rect class="cls-7" x="16" y="6" width="24" height="44"/></g></g><g class="cls-8"><g class="cls-4"><rect class="cls-7" x="6" y="16" width="44" height="24"/></g></g></g></g></svg>