<svg xmlns="http://www.w3.org/2000/svg" xmlns:xlink="http://www.w3.org/1999/xlink" viewBox="0 0 44 44"><defs><style>.cls-1,.cls-2{fill:none;}.cls-1{clip-rule:evenodd;}.cls-3{clip-path:url(#clip-path);}.cls-4{clip-path:url(#clip-path-2);}.cls-5{fill:#fff;}.cls-6{clip-path:url(#clip-path-3);}</style><clipPath id="clip-path" transform="translate(-406 -3934)"><path class="cls-1" d="M428,3944a2,2,0,0,1,2,2v20a2,2,0,1,1-4,0v-20A2,2,0,0,1,428,3944Z"/></clipPath><clipPath id="clip-path-2" transform="translate(-406 -3934)"><rect class="cls-2" width="640" height="5568"/></clipPath><clipPath id="clip-path-3" transform="translate(-406 -3934)"><path class="cls-1" d="M416,3956a2,2,0,0,1,2-2h20a2,2,0,1,1,0,4H418A2,2,0,0,1,416,3956Z"/></clipPath></defs><title>add-new-day-block-icon</title><g id="Layer_2" data-name="Layer 2"><g id="Layer_1-2" data-name="Layer 1"><g class="cls-3"><g class="cls-4"><rect class="cls-5" x="10" width="24" height="44"/></g></g><g class="cls-6"><g class="cls-4"><rect class="cls-5" y="10" width="44" height="24"/></g></g></g></g></svg>