<svg xmlns="http://www.w3.org/2000/svg" xmlns:xlink="http://www.w3.org/1999/xlink" viewBox="0 0 22 19"><defs><style>.cls-1{fill:none;}.cls-2{clip-path:url(#clip-path);}.cls-3{clip-path:url(#clip-path-2);}.cls-4{fill:#fff;}</style><clipPath id="clip-path" transform="translate(-319 -395)"><path class="cls-1" d="M335.78,401.24l-1.05-1a.76.76,0,0,0-1.05,0l-5.08,5L326.32,403a.76.76,0,0,0-1.05,0l-1.05,1a.72.72,0,0,0,0,1l2.8,2.74,1.05,1a.76.76,0,0,0,1.05,0l1.05-1,5.61-5.48a.72.72,0,0,0,0-1Z"/></clipPath><clipPath id="clip-path-2" transform="translate(-319 -395)"><rect class="cls-1" width="1280" height="800"/></clipPath></defs><title>checkbox-checked</title><g id="Layer_2" data-name="Layer 2"><g id="Layer_1-2" data-name="Layer 1"><g class="cls-2"><g class="cls-3"><rect class="cls-4" width="22" height="19"/></g></g></g></g></svg>