<svg xmlns="http://www.w3.org/2000/svg" xmlns:xlink="http://www.w3.org/1999/xlink" viewBox="0 0 27.98 28"><defs><style>.cls-1,.cls-2{fill:none;}.cls-1{clip-rule:evenodd;}.cls-3{clip-path:url(#clip-path);}.cls-4{clip-path:url(#clip-path-2);}.cls-5{fill:#ffffff;}</style><clipPath id="clip-path" transform="translate(-37 -735)"><path class="cls-1" d="M60,749h0L55,754a1,1,0,0,1-1.41-1.41L56.15,750H49a1,1,0,0,1,0-2h7.15l-2.54-2.54A1,1,0,0,1,55,744Zm-9,7a1,1,0,0,1,0,2H43a1,1,0,0,1-1-1V741a1,1,0,0,1,1-1h8a1,1,0,0,1,0,2H44.3a.3.3,0,0,0-.3.3v13.4a.3.3,0,0,0,.3.3Z"/></clipPath><clipPath id="clip-path-2" transform="translate(-37 -735)"><rect class="cls-2" width="1280" height="1100"/></clipPath></defs><title>logout-icon</title><g id="Layer_2" data-name="Layer 2"><g id="Layer_1-2" data-name="Layer 1"><g class="cls-3"><g class="cls-4"><rect class="cls-5" width="27.98" height="28"/></g></g></g></g></svg>