<svg xmlns="http://www.w3.org/2000/svg" xmlns:xlink="http://www.w3.org/1999/xlink" viewBox="0 0 26.78 31.57"><defs><style>.cls-1{fill:none;}.cls-2{clip-path:url(#clip-path);}.cls-3{clip-path:url(#clip-path-2);}.cls-4{fill:#fff;}</style><clipPath id="clip-path" transform="translate(-38.11 -222)"><path class="cls-1" d="M51.07,231.73A4.2,4.2,0,0,1,48,230.6a4.35,4.35,0,0,1-1.11-3.13.52.52,0,0,1,.46-.46,4.2,4.2,0,0,1,3.08,1.13,4.36,4.36,0,0,1,1.11,3.12A.52.52,0,0,1,51.07,231.73Zm.9,1.52c4.47-2,7.92.66,7.92,5.21,0,4.71-3.31,11.93-8.39,9.7-4.82,2.16-8.39-5-8.39-9.7,0-4.51,3.83-7.1,7.86-5.25a26.11,26.11,0,0,1,2.41-5A.54.54,0,0,1,54,228l1.5.71a.24.24,0,0,1,0,.44,15.53,15.53,0,0,0-1.87,1.69h0A17.25,17.25,0,0,0,52,233.25Z"/></clipPath><clipPath id="clip-path-2" transform="translate(-38.11 -222)"><rect class="cls-1" width="1280" height="1000"/></clipPath></defs><title>nutrition-icon-hover</title><g id="Layer_2" data-name="Layer 2"><g id="Layer_1-2" data-name="Layer 1"><g class="cls-2"><g class="cls-3"><rect class="cls-4" width="26.78" height="31.57"/></g></g></g></g></svg>