<svg xmlns="http://www.w3.org/2000/svg" xmlns:xlink="http://www.w3.org/1999/xlink" viewBox="0 0 29.73 31.77"><defs><style>.cls-1{fill:none;}.cls-2{clip-path:url(#clip-path);}.cls-3{clip-path:url(#clip-path-2);}.cls-4{fill:#62ACFF;}</style><clipPath id="clip-path" transform="translate(-36.23 -326)"><path class="cls-1" d="M61,343.81c0-.26-.22-.46-.39-.65a13.66,13.66,0,0,0-1.72-3.87c-1.36-2.15-4.94-5.61-6.31-6.14l-.19-.05a1.6,1.6,0,0,0-.74-1.09,4.77,4.77,0,0,0-4.16-.8c-1.08.44-1.68,2.88-.52,3.72s3.3-.81,4,.22,1.47,4.47,2.76,6.67a7.45,7.45,0,0,0-1-.07,6.41,6.41,0,0,0-3.75,1.12,4.53,4.53,0,0,0-7.7.14v9.76h2.12l.45-.8a11.56,11.56,0,0,0,4.38-3.51C53,350.32,60.86,346.87,61,343.81Z"/></clipPath><clipPath id="clip-path-2" transform="translate(-36.23 -326)"><rect class="cls-1" width="1280" height="1100"/></clipPath></defs><title>strength-icon</title><g id="Layer_2" data-name="Layer 2"><g id="Layer_1-2" data-name="Layer 1"><g class="cls-2"><g class="cls-3"><rect class="cls-4" width="29.73" height="31.77"/></g></g></g></g></svg>